<svg width="18" height="16" viewBox="0 0 18 16" fill="none" xmlns="http://www.w3.org/2000/svg">
<path d="M4.48505 12.3077C3.4301 12.3077 2.57143 13.1421 2.57143 14.1677C2.57143 15.1775 3.43002 16 4.48505 16C5.57446 16 6.428 15.1943 6.428 14.1677C6.42804 13.1242 5.5745 12.3077 4.48505 12.3077Z" fill="#245796"/>
<path d="M14.7981 12.3077C13.7267 12.3077 12.8573 13.1421 12.8573 14.1677C12.8573 15.1775 13.7267 16 14.7981 16C15.8552 16 16.7143 15.1775 16.7143 14.1677C16.7143 13.1242 15.8727 12.3077 14.7981 12.3077Z" fill="#245796"/>
<path d="M18 2.42606L16.1807 10.3578L4.69591 11.6924L0.642857 1.23077L0 1.23096V0L1.87951 0.000125005L2.79176 2.42606H18Z" fill="#245796"/>
</svg>
